<?xml version="1.0" encoding="utf-8"?>
<!-- Generator: Adobe Illustrator 26.0.3, SVG Export Plug-In . SVG Version: 6.00 Build 0)  -->
<svg version="1.1" id="Layer_1" xmlns="http://www.w3.org/2000/svg" xmlns:xlink="http://www.w3.org/1999/xlink" x="0px" y="0px"
	 viewBox="0 0 512 512" style="enable-background:new 0 0 512 512;" xml:space="preserve">
<path d="M256,0C114.6,0,0,114.6,0,256s114.6,256,256,256s256-114.6,256-256S397.4,0,256,0z M364.4,327.6
	c-5.3,29.7-25.9,49.1-50.1,59.1c-10.4,4.3-21.8,7-33.9,8.4v25.5c0,13.5-10.9,24.4-24.4,24.4c-13.5,0-24.4-10.9-24.4-24.4V394
	c-0.3,0-0.7-0.8-1-0.2h-0.2c-18.5-2.9-49.2-10.9-69.8-20.1c-12.3-5.5-17.9-19.9-12.4-32.3c5.5-12.3,19.9-17.9,31.5-12.4
	c16.6,7.1,42.9,14,58.1,16.4c24.4,3.7,44.5,1.5,58.1-4c12.9-5.3,18.8-12.9,20.4-22.1c1.4-8.2,0.4-12.8-1-15.7
	c-1.4-3.1-4.3-6.5-9.8-10.2c-12.4-8.2-31.4-13.7-55.9-20.3l-2.1-0.6c-21.7-5.9-48.2-13.1-67.9-26.2c-10.8-7.2-20.9-16.9-27.1-30.3
	c-6.4-13.6-7.7-28.8-4.8-45.1c5.4-29.7,26.8-48.6,51.9-58.2c9.9-3.8,20.7-6.3,32.1-7.6V78.8c0-13.5,10.9-24.4,24.4-24.4
	c13.5,0,24.4,10.9,24.4,24.4V106c1.2,0.2,2.4,0.3,3.6,0.5c8.1,1.2,32.2,5.1,42.1,7.6c12.4,3.3,21,16.6,17.6,29.7
	c-3.3,13-16.6,21-29.7,17.7c-7.1-2.5-28.7-5.4-37.2-6.6c-24.5-3.7-45.5-1.8-59.9,3.7c-13.9,5.3-19.7,12.9-21.3,21.4
	c-1.5,8.2-0.4,12.8,1,15.7c1.4,3.1,4.3,6.5,9.9,10.2c12.4,8.2,31.3,13.7,55.9,20.3l2.1,0.6c21.7,5.9,48.2,13.1,67.9,26.2
	c10.8,7.2,20.9,16.9,27.2,30.3C366,296.8,367.3,312,364.4,327.6z"/>
</svg>
